<mxfile host="Electron" agent="Mozilla/5.0 (Windows NT 10.0; Win64; x64) AppleWebKit/537.36 (KHTML, like Gecko) draw.io/24.7.17 Chrome/128.0.6613.36 Electron/32.0.1 Safari/537.36" version="24.7.17">
  <diagram name="第 1 页" id="wk51g_l0-vLqmbtqlz3F">
    <mxGraphModel dx="794" dy="519" grid="1" gridSize="10" guides="1" tooltips="1" connect="1" arrows="1" fold="1" page="1" pageScale="1" pageWidth="827" pageHeight="1169" math="0" shadow="0">
      <root>
        <mxCell id="0" />
        <mxCell id="1" parent="0" />
        <mxCell id="hAqjREdMv1-jAOabfJyG-1" value="&lt;b&gt;&lt;font style=&quot;font-size: 14px;&quot;&gt;User&lt;/font&gt;&lt;/b&gt;" style="shape=umlActor;verticalLabelPosition=bottom;verticalAlign=top;html=1;outlineConnect=0;" vertex="1" parent="1">
          <mxGeometry x="160" y="585" width="30" height="60" as="geometry" />
        </mxCell>
        <mxCell id="hAqjREdMv1-jAOabfJyG-5" value="" style="group" vertex="1" connectable="0" parent="1">
          <mxGeometry x="220" y="230" width="200" height="130" as="geometry" />
        </mxCell>
        <mxCell id="hAqjREdMv1-jAOabfJyG-4" value="" style="rounded=1;whiteSpace=wrap;html=1;" vertex="1" parent="hAqjREdMv1-jAOabfJyG-5">
          <mxGeometry width="200" height="130" as="geometry" />
        </mxCell>
        <mxCell id="hAqjREdMv1-jAOabfJyG-3" value="&lt;h1 style=&quot;margin-top: 0px;&quot;&gt;Article&lt;/h1&gt;&lt;p&gt;Each tip is regarded as an investment in the article.&lt;/p&gt;" style="text;html=1;whiteSpace=wrap;overflow=hidden;rounded=0;" vertex="1" parent="hAqjREdMv1-jAOabfJyG-5">
          <mxGeometry x="10" y="20" width="180" height="90" as="geometry" />
        </mxCell>
        <mxCell id="hAqjREdMv1-jAOabfJyG-8" value="" style="group" vertex="1" connectable="0" parent="1">
          <mxGeometry x="10" y="250" width="140" height="90" as="geometry" />
        </mxCell>
        <mxCell id="hAqjREdMv1-jAOabfJyG-7" value="" style="rounded=1;whiteSpace=wrap;html=1;" vertex="1" parent="hAqjREdMv1-jAOabfJyG-8">
          <mxGeometry width="140" height="90" as="geometry" />
        </mxCell>
        <mxCell id="hAqjREdMv1-jAOabfJyG-2" value="" style="shape=actor;whiteSpace=wrap;html=1;" vertex="1" parent="hAqjREdMv1-jAOabfJyG-8">
          <mxGeometry x="20" y="15" width="40" height="60" as="geometry" />
        </mxCell>
        <mxCell id="hAqjREdMv1-jAOabfJyG-6" value="&lt;b&gt;&lt;font style=&quot;font-size: 14px;&quot;&gt;Author&lt;/font&gt;&lt;/b&gt;" style="text;html=1;align=center;verticalAlign=middle;whiteSpace=wrap;rounded=0;" vertex="1" parent="hAqjREdMv1-jAOabfJyG-8">
          <mxGeometry x="70" y="35" width="60" height="30" as="geometry" />
        </mxCell>
        <mxCell id="hAqjREdMv1-jAOabfJyG-9" style="edgeStyle=orthogonalEdgeStyle;rounded=0;orthogonalLoop=1;jettySize=auto;html=1;" edge="1" parent="1" source="hAqjREdMv1-jAOabfJyG-7" target="hAqjREdMv1-jAOabfJyG-4">
          <mxGeometry relative="1" as="geometry" />
        </mxCell>
        <mxCell id="hAqjREdMv1-jAOabfJyG-27" style="edgeStyle=orthogonalEdgeStyle;rounded=0;orthogonalLoop=1;jettySize=auto;html=1;entryX=1;entryY=1;entryDx=0;entryDy=0;exitX=0;exitY=0.5;exitDx=0;exitDy=0;curved=1;" edge="1" parent="1" source="hAqjREdMv1-jAOabfJyG-10" target="hAqjREdMv1-jAOabfJyG-7">
          <mxGeometry relative="1" as="geometry" />
        </mxCell>
        <mxCell id="hAqjREdMv1-jAOabfJyG-33" style="edgeStyle=orthogonalEdgeStyle;rounded=0;orthogonalLoop=1;jettySize=auto;html=1;entryX=0;entryY=0.5;entryDx=0;entryDy=0;" edge="1" parent="1" source="hAqjREdMv1-jAOabfJyG-10" target="hAqjREdMv1-jAOabfJyG-26">
          <mxGeometry relative="1" as="geometry" />
        </mxCell>
        <mxCell id="hAqjREdMv1-jAOabfJyG-10" value="Tip Pool" style="rounded=1;whiteSpace=wrap;html=1;fillColor=#dae8fc;strokeColor=#6c8ebf;fontStyle=1;fontSize=14;" vertex="1" parent="1">
          <mxGeometry x="240" y="400" width="160" height="80" as="geometry" />
        </mxCell>
        <mxCell id="hAqjREdMv1-jAOabfJyG-11" style="edgeStyle=orthogonalEdgeStyle;rounded=0;orthogonalLoop=1;jettySize=auto;html=1;" edge="1" parent="1" source="hAqjREdMv1-jAOabfJyG-4" target="hAqjREdMv1-jAOabfJyG-10">
          <mxGeometry relative="1" as="geometry" />
        </mxCell>
        <mxCell id="hAqjREdMv1-jAOabfJyG-12" value="&lt;b&gt;&lt;font style=&quot;font-size: 14px;&quot;&gt;User&lt;/font&gt;&lt;/b&gt;" style="shape=umlActor;verticalLabelPosition=bottom;verticalAlign=top;html=1;outlineConnect=0;" vertex="1" parent="1">
          <mxGeometry x="250" y="585" width="30" height="60" as="geometry" />
        </mxCell>
        <mxCell id="hAqjREdMv1-jAOabfJyG-13" value="&lt;b&gt;&lt;font style=&quot;font-size: 14px;&quot;&gt;User&lt;/font&gt;&lt;/b&gt;" style="shape=umlActor;verticalLabelPosition=bottom;verticalAlign=top;html=1;outlineConnect=0;" vertex="1" parent="1">
          <mxGeometry x="340" y="585" width="30" height="60" as="geometry" />
        </mxCell>
        <mxCell id="hAqjREdMv1-jAOabfJyG-14" value="&lt;b&gt;&lt;font style=&quot;font-size: 14px;&quot;&gt;User&lt;/font&gt;&lt;/b&gt;" style="shape=umlActor;verticalLabelPosition=bottom;verticalAlign=top;html=1;outlineConnect=0;" vertex="1" parent="1">
          <mxGeometry x="424" y="585" width="30" height="60" as="geometry" />
        </mxCell>
        <mxCell id="hAqjREdMv1-jAOabfJyG-15" value="" style="shape=flexArrow;endArrow=classic;html=1;rounded=0;" edge="1" parent="1">
          <mxGeometry width="50" height="50" relative="1" as="geometry">
            <mxPoint x="190" y="570" as="sourcePoint" />
            <mxPoint x="240" y="500" as="targetPoint" />
          </mxGeometry>
        </mxCell>
        <mxCell id="hAqjREdMv1-jAOabfJyG-18" value="" style="shape=flexArrow;endArrow=classic;html=1;rounded=0;" edge="1" parent="1">
          <mxGeometry width="50" height="50" relative="1" as="geometry">
            <mxPoint x="270" y="580" as="sourcePoint" />
            <mxPoint x="280" y="500" as="targetPoint" />
          </mxGeometry>
        </mxCell>
        <mxCell id="hAqjREdMv1-jAOabfJyG-19" value="" style="shape=flexArrow;endArrow=classic;html=1;rounded=0;" edge="1" parent="1">
          <mxGeometry width="50" height="50" relative="1" as="geometry">
            <mxPoint x="350" y="580" as="sourcePoint" />
            <mxPoint x="340" y="500" as="targetPoint" />
          </mxGeometry>
        </mxCell>
        <mxCell id="hAqjREdMv1-jAOabfJyG-20" value="" style="shape=flexArrow;endArrow=classic;html=1;rounded=0;" edge="1" parent="1">
          <mxGeometry width="50" height="50" relative="1" as="geometry">
            <mxPoint x="430" y="580" as="sourcePoint" />
            <mxPoint x="390" y="490" as="targetPoint" />
          </mxGeometry>
        </mxCell>
        <mxCell id="hAqjREdMv1-jAOabfJyG-23" value="1. Article Creation" style="text;html=1;align=center;verticalAlign=middle;whiteSpace=wrap;rounded=0;" vertex="1" parent="1">
          <mxGeometry x="140" y="260" width="90" height="30" as="geometry" />
        </mxCell>
        <mxCell id="hAqjREdMv1-jAOabfJyG-24" value="2. Article Share" style="text;html=1;align=center;verticalAlign=middle;whiteSpace=wrap;rounded=0;" vertex="1" parent="1">
          <mxGeometry x="210" y="360" width="110" height="30" as="geometry" />
        </mxCell>
        <mxCell id="hAqjREdMv1-jAOabfJyG-25" value="3. Tips&amp;amp;Investment" style="text;html=1;align=center;verticalAlign=middle;whiteSpace=wrap;rounded=0;" vertex="1" parent="1">
          <mxGeometry x="440" y="530" width="110" height="30" as="geometry" />
        </mxCell>
        <mxCell id="hAqjREdMv1-jAOabfJyG-35" style="edgeStyle=orthogonalEdgeStyle;rounded=0;orthogonalLoop=1;jettySize=auto;html=1;exitX=0;exitY=0;exitDx=0;exitDy=0;entryX=1;entryY=0;entryDx=0;entryDy=0;curved=1;" edge="1" parent="1" source="hAqjREdMv1-jAOabfJyG-26" target="hAqjREdMv1-jAOabfJyG-10">
          <mxGeometry relative="1" as="geometry">
            <Array as="points">
              <mxPoint x="510" y="370" />
              <mxPoint x="400" y="370" />
            </Array>
          </mxGeometry>
        </mxCell>
        <mxCell id="hAqjREdMv1-jAOabfJyG-26" value="Ad Auction" style="rounded=1;whiteSpace=wrap;html=1;fillColor=#dae8fc;strokeColor=#6c8ebf;fontStyle=1;fontSize=14;" vertex="1" parent="1">
          <mxGeometry x="510" y="400" width="160" height="80" as="geometry" />
        </mxCell>
        <mxCell id="hAqjREdMv1-jAOabfJyG-28" style="edgeStyle=orthogonalEdgeStyle;rounded=0;orthogonalLoop=1;jettySize=auto;html=1;exitX=0;exitY=0.5;exitDx=0;exitDy=0;entryX=0.5;entryY=0;entryDx=0;entryDy=0;entryPerimeter=0;curved=1;" edge="1" parent="1" source="hAqjREdMv1-jAOabfJyG-10" target="hAqjREdMv1-jAOabfJyG-1">
          <mxGeometry relative="1" as="geometry" />
        </mxCell>
        <mxCell id="hAqjREdMv1-jAOabfJyG-31" value="5.Shares Become Public" style="text;html=1;align=center;verticalAlign=middle;whiteSpace=wrap;rounded=0;" vertex="1" parent="1">
          <mxGeometry x="245" y="450" width="150" height="30" as="geometry" />
        </mxCell>
        <mxCell id="hAqjREdMv1-jAOabfJyG-32" value="4. 80%Shares for Tipper and 20% for Author" style="text;html=1;align=center;verticalAlign=middle;whiteSpace=wrap;rounded=0;" vertex="1" parent="1">
          <mxGeometry x="40" y="440" width="150" height="30" as="geometry" />
        </mxCell>
        <mxCell id="hAqjREdMv1-jAOabfJyG-34" value="6. Unlocks Ad Slots" style="text;html=1;align=center;verticalAlign=middle;whiteSpace=wrap;rounded=0;" vertex="1" parent="1">
          <mxGeometry x="409" y="450" width="90" height="30" as="geometry" />
        </mxCell>
        <mxCell id="hAqjREdMv1-jAOabfJyG-36" value="7. Ad Revenue Added to Tip Pool" style="text;html=1;align=center;verticalAlign=middle;whiteSpace=wrap;rounded=0;" vertex="1" parent="1">
          <mxGeometry x="400" y="380" width="110" height="30" as="geometry" />
        </mxCell>
      </root>
    </mxGraphModel>
  </diagram>
</mxfile>
